<svg width="38" height="38" viewBox="0 0 38 38" fill="none" xmlns="http://www.w3.org/2000/svg">
<path d="M36.4166 15.8333C36.4166 14.9935 36.083 14.188 35.4892 13.5941C34.8953 13.0003 34.0898 12.6666 33.25 12.6666H23.2433L24.7633 5.43081C24.795 5.27248 24.8108 5.09831 24.8108 4.92415C24.8108 4.27498 24.5416 3.67331 24.1141 3.24581L22.4358 1.58331L12.0175 12.0016C11.4316 12.5875 11.0833 13.3791 11.0833 14.25V30.0833C11.0833 30.9232 11.4169 31.7286 12.0108 32.3225C12.6047 32.9163 13.4101 33.25 14.25 33.25H28.5C29.8141 33.25 30.9383 32.4583 31.4133 31.3183L36.195 20.1558C36.3375 19.7916 36.4166 19.4116 36.4166 19V15.8333ZM1.58331 33.25H7.91665V14.25H1.58331V33.25Z" fill="white"/>
</svg>
